<?xml version="1.0" encoding="utf-8" ?>
<svg xmlns="http://www.w3.org/2000/svg" xmlns:xlink="http://www.w3.org/1999/xlink" width="1000" height="1000">
	<path fill="#3D405B" transform="scale(1.95312 1.95312)" d="M0 0L0 512L512 512L512 0L0 0Z"/>
	<path fill="#F4F1DE" transform="scale(1.95312 1.95312)" d="M341.474 274.136L172.077 274.193C163.675 274.193 158.201 274.441 152.232 266.871C148.446 262.07 147.459 255.548 148.177 249.59L160.163 249.289C153.345 243.553 152.582 238.587 152.59 230.591L152.588 136.291C152.586 134.288 152.427 132.356 152.69 130.352C153.895 121.164 161.762 114.325 170.852 113.432L340.814 113.42C349.628 113.797 357.741 120.86 359.207 129.594C359.659 132.285 359.671 135.08 359.675 137.8L359.61 234.316C359.242 241.3 356.542 244.995 351.64 249.416C352.364 249.608 353.492 249.478 354.261 249.479L363.973 249.673L364.007 254.763C363.765 263.538 357.933 272.481 348.915 273.943C346.491 274.336 343.918 274.206 341.474 274.136ZM173.95 132.239C171.96 133.145 171.281 134.537 171.23 136.578L171.304 232.381C171.487 237.88 176.282 237.681 180.034 237.591L232.236 237.589C235.082 237.591 236.888 236.972 238.424 239.88L239.621 242.574C241.089 242.741 242.488 242.631 243.955 242.628L272.059 242.576C274.218 237.89 274.522 237.6 279.289 237.587L332.786 237.624C339.591 237.727 340.678 235.983 340.706 229.222L340.708 139.308C340.705 135.764 340.991 132.354 336.258 132.253L178.399 132.226C176.954 132.226 175.374 132.06 173.95 132.239Z"/>
	<path fill="#F4F1DE" transform="scale(1.95312 1.95312)" d="M257.612 190.42C253.109 191.298 246.635 187.416 242.644 185.64L207.485 169.863C205.169 168.799 202.46 167.96 200.33 166.585C202.351 165.34 204.822 164.565 206.992 163.553L248.748 144.747C251.023 143.718 253.328 142.406 255.812 142.004C257.208 141.894 258.491 142.216 259.771 142.746L311.965 166.338C312.183 166.449 312.752 166.655 312.832 166.848C308.058 168.618 303.633 170.948 298.986 172.991L265.52 187.425C262.927 188.525 260.36 189.761 257.612 190.42Z"/>
	<path fill="#F4F1DE" transform="scale(1.95312 1.95312)" d="M292.395 210.186L291.502 211.152C290.899 211.717 290.158 212.12 289.416 212.472L266.029 222.255C255.069 226.756 256.385 226.487 246.417 222.168L227.134 214.267C221.471 212.098 218.468 211.943 218.46 204.712L218.548 182.906L247.784 195.946C257.046 200.03 258.305 198.769 267.665 194.573L287.981 185.884C289.659 185.212 291.396 184.377 293.171 184.042C293.325 185.632 293.246 187.213 293.244 188.806L293.247 203.098C293.262 205.469 293.594 208.041 292.395 210.186Z"/>
	<path fill="#F4F1DE" transform="scale(1.95312 1.95312)" d="M307.17 206.971C300.418 206.885 300.472 196.707 305.97 195.326C307.934 195.254 309.903 195.943 310.487 198.035L310.535 198.219C310.927 199.654 311.011 202.39 310.575 203.861L310.521 204.029C310.011 205.683 308.865 206.6 307.17 206.971Z"/>
	<path fill="#E07A5F" transform="scale(1.95312 1.95312)" d="M84.6872 430.629C79.468 430.629 75.4384 429.612 72.5986 427.578C69.7587 425.544 67.7823 422.551 66.6694 418.598C65.5565 414.646 65 409.791 65 404.034L65 388.837C65 382.927 65.5756 378.015 66.7269 374.101C67.8782 370.186 69.893 367.231 72.7712 365.236C75.6495 363.24 79.6215 362.242 84.6872 362.242C90.2902 362.242 94.4156 363.394 97.0636 365.696C99.7116 367.999 101.458 371.318 102.302 375.655C103.146 379.991 103.568 385.191 103.568 391.255L103.568 396.666L77.3189 396.666L77.3189 410.021C77.3189 412.707 77.5684 414.895 78.0672 416.583C78.5661 418.272 79.372 419.519 80.4849 420.325C81.5979 421.131 83.037 421.534 84.8023 421.534C86.6444 421.534 88.0451 421.093 89.0045 420.21C89.9639 419.327 90.6163 418.061 90.9617 416.411C91.3071 414.761 91.4798 412.823 91.4798 410.597L91.4798 406.567L103.453 406.567L103.453 409.1C103.453 415.778 102.033 421.035 99.1935 424.873C96.3536 428.71 91.5181 430.629 84.6872 430.629ZM77.3189 389.989L91.4798 389.989L91.4798 384.002C91.4798 381.239 91.3263 378.917 91.0193 377.036C90.7122 375.156 90.079 373.736 89.1196 372.777C88.1603 371.817 86.6444 371.338 84.572 371.338C82.5765 371.338 81.0606 371.798 80.0244 372.719C78.9882 373.64 78.2782 375.194 77.8945 377.382C77.5108 379.569 77.3189 382.582 77.3189 386.42L77.3189 389.989ZM115.887 429.708L115.887 336.453L128.206 336.453L128.206 429.708L115.887 429.708ZM159.521 430.629C154.302 430.629 150.273 429.612 147.433 427.578C144.593 425.544 142.617 422.551 141.504 418.598C140.391 414.646 139.834 409.791 139.834 404.034L139.834 388.837C139.834 382.927 140.41 378.015 141.561 374.101C142.712 370.186 144.727 367.231 147.605 365.236C150.484 363.24 154.456 362.242 159.521 362.242C165.124 362.242 169.25 363.394 171.898 365.696C174.546 367.999 176.292 371.318 177.136 375.655C177.98 379.991 178.403 385.191 178.403 391.255L178.403 396.666L152.153 396.666L152.153 410.021C152.153 412.707 152.403 414.895 152.901 416.583C153.4 418.272 154.206 419.519 155.319 420.325C156.432 421.131 157.871 421.534 159.637 421.534C161.479 421.534 162.879 421.093 163.839 420.21C164.798 419.327 165.451 418.061 165.796 416.411C166.141 414.761 166.314 412.823 166.314 410.597L166.314 406.567L178.288 406.567L178.288 409.1C178.288 415.778 176.868 421.035 174.028 424.873C171.188 428.71 166.352 430.629 159.521 430.629ZM152.153 389.989L166.314 389.989L166.314 384.002C166.314 381.239 166.161 378.917 165.854 377.036C165.546 375.156 164.913 373.736 163.954 372.777C162.994 371.817 161.479 371.338 159.406 371.338C157.411 371.338 155.895 371.798 154.859 372.719C153.822 373.64 153.112 375.194 152.729 377.382C152.345 379.569 152.153 382.582 152.153 386.42L152.153 389.989ZM199.586 430.629C196.976 430.629 194.674 429.881 192.679 428.384C190.684 426.888 189.11 424.969 187.958 422.628C186.807 420.287 186.231 417.812 186.231 415.202C186.231 411.057 186.922 407.565 188.304 404.725C189.685 401.885 191.585 399.487 194.003 397.53C196.42 395.572 199.222 393.865 202.407 392.406C205.593 390.948 208.95 389.528 212.481 388.146L212.481 383.426C212.481 380.74 212.328 378.514 212.02 376.749C211.713 374.983 211.08 373.659 210.121 372.777C209.162 371.894 207.723 371.453 205.803 371.453C204.115 371.453 202.753 371.836 201.716 372.604C200.68 373.372 199.932 374.465 199.471 375.885C199.011 377.305 198.781 378.974 198.781 380.893L198.781 384.232L186.577 383.772C186.73 376.403 188.419 370.973 191.643 367.481C194.866 363.988 199.855 362.242 206.609 362.242C213.21 362.242 217.892 364.046 220.655 367.653C223.418 371.261 224.8 376.48 224.8 383.311L224.8 413.705C224.8 415.778 224.857 417.773 224.973 419.692C225.088 421.611 225.241 423.395 225.433 425.046C225.625 426.696 225.798 428.25 225.951 429.708L214.668 429.708C214.438 428.48 214.15 426.926 213.805 425.046C213.46 423.165 213.21 421.457 213.057 419.922C212.289 422.532 210.812 424.969 208.624 427.233C206.437 429.497 203.424 430.629 199.586 430.629ZM204.422 420.037C205.65 420.037 206.802 419.692 207.876 419.001C208.95 418.31 209.91 417.524 210.754 416.641C211.598 415.758 212.174 415.048 212.481 414.511L212.481 395.63C210.562 396.704 208.759 397.779 207.07 398.854C205.381 399.928 203.904 401.06 202.637 402.25C201.371 403.439 200.373 404.783 199.644 406.279C198.915 407.776 198.55 409.484 198.55 411.403C198.55 414.089 199.049 416.2 200.047 417.735C201.045 419.27 202.503 420.037 204.422 420.037ZM237.004 429.708L237.004 363.163L249.322 363.163L249.322 372.604C251.778 368.536 254.235 365.811 256.691 364.43C259.146 363.048 261.603 362.357 264.059 362.357C264.366 362.357 264.654 362.357 264.923 362.357C265.191 362.357 265.556 362.396 266.016 362.473L266.016 376.058C265.095 375.674 264.039 375.348 262.85 375.079C261.661 374.811 260.452 374.676 259.224 374.676C257.304 374.676 255.559 375.118 253.985 376C252.411 376.883 250.857 378.591 249.322 381.124L249.322 429.708L237.004 429.708ZM273.615 429.708L273.615 363.163L285.934 363.163L285.934 369.726C288.159 367.653 290.616 365.888 293.302 364.43C295.988 362.971 298.943 362.242 302.167 362.242C304.853 362.242 306.907 362.933 308.326 364.315C309.746 365.696 310.744 367.423 311.32 369.495C311.895 371.568 312.183 373.678 312.183 375.828L312.183 429.708L299.864 429.708L299.864 379.397C299.864 377.017 299.519 375.175 298.828 373.87C298.137 372.566 296.718 371.913 294.568 371.913C293.187 371.913 291.748 372.316 290.251 373.122C288.754 373.928 287.315 374.907 285.934 376.058L285.934 429.708L273.615 429.708ZM324.963 429.708L324.963 363.163L337.281 363.163L337.281 429.708L324.963 429.708ZM324.963 353.262L324.963 340.368L337.281 340.368L337.281 353.262L324.963 353.262ZM350.521 429.708L350.521 363.163L362.84 363.163L362.84 369.726C365.066 367.653 367.523 365.888 370.209 364.43C372.894 362.971 375.85 362.242 379.073 362.242C381.759 362.242 383.813 362.933 385.233 364.315C386.652 365.696 387.651 367.423 388.226 369.495C388.802 371.568 389.09 373.678 389.09 375.828L389.09 429.708L376.771 429.708L376.771 379.397C376.771 377.017 376.426 375.175 375.735 373.87C375.044 372.566 373.624 371.913 371.475 371.913C370.093 371.913 368.654 372.316 367.158 373.122C365.661 373.928 364.222 374.907 362.84 376.058L362.84 429.708L350.521 429.708ZM418.678 450.547C414.611 450.547 410.945 450.105 407.683 449.223C404.422 448.34 401.85 446.978 399.97 445.136C398.089 443.294 397.149 440.876 397.149 437.882C397.149 435.58 397.686 433.565 398.761 431.838C399.835 430.111 401.216 428.634 402.905 427.406C404.594 426.178 406.359 425.218 408.201 424.527L413.958 425.333C412.96 426.254 412.001 427.195 411.08 428.154C410.158 429.113 409.391 430.111 408.777 431.147C408.163 432.184 407.856 433.316 407.856 434.544C407.856 436.539 408.719 438.036 410.446 439.034C412.173 440.032 415.262 440.53 419.714 440.53C424.089 440.53 427.332 440.012 429.443 438.976C431.553 437.94 432.609 436.309 432.609 434.083C432.609 432.702 432.34 431.57 431.803 430.687C431.265 429.804 430.344 429.094 429.04 428.557C427.735 428.02 425.854 427.636 423.398 427.406L408.892 425.564C405.899 425.18 403.673 424.22 402.215 422.685C400.756 421.15 400.027 419.462 400.027 417.62C400.027 414.857 400.813 412.516 402.387 410.597C403.961 408.678 406.091 406.529 408.777 404.149L412.922 407.373C412.461 407.987 411.885 408.851 411.195 409.964C410.504 411.076 410.158 412.17 410.158 413.245C410.158 414.089 410.599 414.78 411.482 415.317C412.366 415.854 413.765 416.2 415.685 416.353L426.852 417.389C432.071 417.85 435.948 419.423 438.48 422.11C441.013 424.796 442.28 428.634 442.28 433.623C442.28 437.307 441.416 440.415 439.689 442.948C437.962 445.481 435.372 447.381 431.918 448.647C428.464 449.913 424.051 450.547 418.678 450.547ZM419.139 409.215C414.611 409.215 410.926 408.217 408.086 406.222C405.246 404.226 403.155 401.463 401.812 397.932C400.468 394.402 399.797 390.372 399.797 385.844C399.797 380.701 400.526 376.384 401.984 372.892C403.443 369.4 405.611 366.752 408.489 364.948C411.367 363.144 414.917 362.242 419.139 362.242C423.514 362.242 427.083 363.336 429.846 365.524C432.609 367.711 434.643 370.608 435.948 374.216C437.252 377.823 437.905 381.814 437.905 386.189C437.905 390.718 437.309 394.728 436.12 398.22C434.931 401.713 432.974 404.418 430.249 406.337C427.523 408.256 423.821 409.215 419.139 409.215ZM419.139 400.35C420.828 400.35 422.17 400.024 423.168 399.372C424.166 398.719 424.915 397.779 425.413 396.551C425.912 395.323 426.257 393.807 426.449 392.003C426.642 390.2 426.737 388.146 426.737 385.844C426.737 383.541 426.66 381.469 426.507 379.627C426.354 377.785 426.008 376.231 425.471 374.964C424.933 373.698 424.166 372.719 423.168 372.028C422.17 371.338 420.866 370.992 419.254 370.992C417.565 370.992 416.203 371.318 415.167 371.971C414.13 372.623 413.325 373.583 412.749 374.849C412.173 376.115 411.79 377.67 411.598 379.512C411.405 381.354 411.31 383.464 411.31 385.844C411.31 387.916 411.405 389.835 411.598 391.6C411.79 393.366 412.154 394.901 412.691 396.206C413.229 397.51 414.015 398.527 415.051 399.256C416.088 399.986 417.45 400.35 419.139 400.35ZM435.602 374.331L432.724 369.726C433.338 368.651 434.719 367.308 436.869 365.696C439.018 364.084 441.321 362.741 443.776 361.667L447 369.726C445.926 369.956 444.487 370.378 442.683 370.992C440.879 371.606 439.248 372.239 437.79 372.892C436.331 373.544 435.602 374.024 435.602 374.331Z"/>
</svg>
