<?xml version="1.0" encoding="utf-8" ?>
<svg xmlns="http://www.w3.org/2000/svg" xmlns:xlink="http://www.w3.org/1999/xlink" width="1000" height="1000">
	<path fill="#3D405B" transform="scale(1.95312 1.95312)" d="M0 0L0 512L512 512L512 0L0 0Z"/>
	<path fill="#F4F1DE" transform="scale(1.95312 1.95312)" d="M398.577 388.838L116.011 388.934C101.996 388.933 92.8651 389.346 82.9083 376.72C76.5928 368.711 74.9467 357.832 76.1432 347.895L96.1375 347.391C84.7647 337.824 83.4913 329.54 83.5044 316.203L83.5019 158.903C83.4985 155.562 83.2335 152.339 83.6718 148.996C85.6815 133.671 98.805 122.263 113.967 120.773L397.475 120.754C412.178 121.383 425.711 133.163 428.156 147.733C428.91 152.221 428.93 156.883 428.936 161.421L428.829 322.415C428.215 334.065 423.712 340.229 415.534 347.603C416.742 347.924 418.623 347.708 419.907 347.709L436.107 348.032L436.163 356.522C435.759 371.159 426.031 386.078 410.988 388.517C406.945 389.173 402.653 388.955 398.577 388.838ZM119.134 152.144C115.815 153.656 114.683 155.978 114.598 159.382L114.722 319.188C115.026 328.361 123.025 328.029 129.283 327.878L216.36 327.876C221.107 327.878 224.12 326.846 226.682 331.698L228.679 336.191C231.128 336.468 233.461 336.285 235.908 336.28L282.787 336.195C286.388 328.378 286.895 327.893 294.847 327.873L384.084 327.935C395.436 328.105 397.248 325.197 397.295 313.918L397.299 163.936C397.294 158.024 397.77 152.336 389.876 152.167L126.557 152.123C124.145 152.123 121.511 151.846 119.134 152.144Z"/>
	<path fill="#F4F1DE" transform="scale(1.95312 1.95312)" d="M258.688 249.194C251.177 250.658 240.379 244.183 233.721 241.221L175.073 214.904C171.211 213.129 166.692 211.729 163.138 209.435C166.511 207.359 170.632 206.067 174.252 204.378L243.902 173.009C247.699 171.292 251.542 169.104 255.686 168.433C258.014 168.25 260.155 168.786 262.291 169.67L349.353 209.025C349.718 209.21 350.667 209.553 350.799 209.874C342.836 212.828 335.455 216.713 327.703 220.122L271.879 244.198C267.555 246.034 263.272 248.095 258.688 249.194Z"/>
	<path fill="#F4F1DE" transform="scale(1.95312 1.95312)" d="M316.709 282.165L315.22 283.777C314.214 284.72 312.977 285.392 311.74 285.979L272.73 302.297C254.448 309.806 256.643 309.356 240.015 302.152L207.85 288.973C198.404 285.354 193.393 285.096 193.381 273.035L193.527 236.66L242.295 258.412C257.745 265.224 259.844 263.121 275.458 256.123L309.346 241.627C312.145 240.508 315.042 239.114 318.004 238.556C318.26 241.207 318.129 243.844 318.125 246.502L318.13 270.342C318.156 274.298 318.71 278.587 316.709 282.165Z"/>
	<path fill="#F4F1DE" transform="scale(1.95312 1.95312)" d="M341.355 276.802C330.092 276.66 330.182 259.681 339.354 257.379C342.63 257.257 345.914 258.407 346.887 261.897L346.968 262.203C347.622 264.598 347.762 269.161 347.036 271.615L346.945 271.896C346.093 274.654 344.183 276.183 341.355 276.802Z"/>
</svg>
