<?xml version="1.0" encoding="utf-8" ?>
<svg xmlns="http://www.w3.org/2000/svg" xmlns:xlink="http://www.w3.org/1999/xlink" width="1000" height="1000">
	<path fill="#3D405B" transform="scale(1.95312 1.95312)" d="M0 0L0 512L512 512L512 0L0 0Z"/>
	<path fill="#F4F1DE" transform="scale(1.95312 1.95312)" d="M211.163 286.114L147.105 286.136C143.928 286.136 141.858 286.23 139.601 283.367C138.169 281.552 137.796 279.085 138.067 276.833L142.6 276.718C140.022 274.549 139.733 272.671 139.736 269.648L139.736 233.988C139.735 233.231 139.675 232.5 139.774 231.742C140.23 228.268 143.205 225.682 146.642 225.344L210.914 225.34C214.247 225.482 217.314 228.153 217.869 231.456C218.04 232.473 218.044 233.53 218.046 234.559L218.021 271.056C217.882 273.697 216.861 275.095 215.008 276.766C215.281 276.839 215.708 276.79 215.999 276.79L219.671 276.864L219.684 278.788C219.592 282.107 217.387 285.489 213.977 286.042C213.06 286.19 212.087 286.141 211.163 286.114ZM147.814 232.456C147.061 232.799 146.804 233.325 146.785 234.097L146.813 270.325C146.882 272.404 148.696 272.329 150.114 272.295L169.855 272.294C170.931 272.295 171.614 272.061 172.195 273.161L172.647 274.179C173.203 274.242 173.731 274.201 174.286 274.2L184.914 274.18C185.73 272.408 185.845 272.298 187.648 272.294L207.878 272.308C210.451 272.346 210.862 271.687 210.873 269.13L210.874 235.129C210.872 233.789 210.98 232.499 209.191 232.461L149.496 232.451C148.95 232.451 148.352 232.388 147.814 232.456Z"/>
	<path fill="#F4F1DE" transform="scale(1.95312 1.95312)" d="M179.45 254.457C177.748 254.789 175.3 253.321 173.791 252.65L160.495 246.684C159.619 246.281 158.595 245.964 157.789 245.444C158.554 244.973 159.488 244.68 160.309 244.297L176.099 237.186C176.959 236.797 177.83 236.301 178.77 236.148C179.298 236.107 179.783 236.229 180.267 236.429L200.004 245.351C200.087 245.393 200.302 245.471 200.332 245.543C198.527 246.213 196.854 247.094 195.096 247.866L182.441 253.324C181.461 253.741 180.49 254.208 179.45 254.457Z"/>
	<path fill="#F4F1DE" transform="scale(1.95312 1.95312)" d="M192.604 261.932L192.266 262.297C192.038 262.511 191.758 262.663 191.477 262.796L182.634 266.496C178.489 268.198 178.987 268.096 175.217 266.463L167.925 263.475C165.784 262.655 164.648 262.596 164.645 259.862L164.678 251.616L175.734 256.547C179.237 258.091 179.713 257.614 183.252 256.028L190.935 252.742C191.569 252.488 192.226 252.172 192.897 252.045C192.955 252.646 192.926 253.244 192.925 253.847L192.926 259.251C192.932 260.148 193.057 261.121 192.604 261.932Z"/>
	<path fill="#F4F1DE" transform="scale(1.95312 1.95312)" d="M198.191 260.716C195.638 260.684 195.658 256.834 197.737 256.313C198.48 256.285 199.224 256.546 199.445 257.337L199.464 257.406C199.612 257.949 199.644 258.984 199.479 259.54L199.458 259.604C199.265 260.229 198.832 260.576 198.191 260.716Z"/>
	<path fill="#E07A5F" transform="scale(1.95312 1.95312)" d="M238.433 270.319C236.421 270.319 234.867 269.927 233.771 269.142C232.676 268.358 231.914 267.203 231.485 265.679C231.056 264.155 230.841 262.283 230.841 260.063L230.841 254.202C230.841 251.923 231.063 250.028 231.507 248.519C231.951 247.009 232.728 245.869 233.838 245.1C234.948 244.33 236.48 243.946 238.433 243.946C240.594 243.946 242.185 244.39 243.206 245.277C244.228 246.165 244.901 247.446 245.227 249.118C245.552 250.79 245.715 252.796 245.715 255.134L245.715 257.221L235.592 257.221L235.592 262.371C235.592 263.407 235.688 264.251 235.88 264.902C236.073 265.553 236.384 266.034 236.813 266.345C237.242 266.656 237.797 266.811 238.478 266.811C239.188 266.811 239.728 266.641 240.098 266.301C240.468 265.96 240.72 265.472 240.853 264.836C240.986 264.199 241.053 263.452 241.053 262.593L241.053 261.039L245.671 261.039L245.671 262.016C245.671 264.591 245.123 266.619 244.028 268.099C242.933 269.579 241.068 270.319 238.433 270.319ZM235.592 254.646L241.053 254.646L241.053 252.337C241.053 251.271 240.994 250.376 240.875 249.651C240.757 248.926 240.513 248.378 240.143 248.008C239.773 247.638 239.188 247.453 238.389 247.453C237.619 247.453 237.035 247.631 236.635 247.986C236.236 248.341 235.962 248.94 235.814 249.784C235.666 250.628 235.592 251.789 235.592 253.269L235.592 254.646ZM250.466 269.964L250.466 234L255.216 234L255.216 269.964L250.466 269.964ZM267.293 270.319C265.28 270.319 263.726 269.927 262.631 269.142C261.536 268.358 260.774 267.203 260.345 265.679C259.915 264.155 259.701 262.283 259.701 260.063L259.701 254.202C259.701 251.923 259.923 250.028 260.367 248.519C260.811 247.009 261.588 245.869 262.698 245.1C263.808 244.33 265.34 243.946 267.293 243.946C269.454 243.946 271.045 244.39 272.066 245.277C273.087 246.165 273.761 247.446 274.086 249.118C274.412 250.79 274.575 252.796 274.575 255.134L274.575 257.221L264.452 257.221L264.452 262.371C264.452 263.407 264.548 264.251 264.74 264.902C264.933 265.553 265.243 266.034 265.673 266.345C266.102 266.656 266.657 266.811 267.338 266.811C268.048 266.811 268.588 266.641 268.958 266.301C269.328 265.96 269.58 265.472 269.713 264.836C269.846 264.199 269.913 263.452 269.913 262.593L269.913 261.039L274.53 261.039L274.53 262.016C274.53 264.591 273.983 266.619 272.887 268.099C271.792 269.579 269.927 270.319 267.293 270.319ZM264.452 254.646L269.913 254.646L269.913 252.337C269.913 251.271 269.854 250.376 269.735 249.651C269.617 248.926 269.372 248.378 269.003 248.008C268.633 247.638 268.048 247.453 267.249 247.453C266.479 247.453 265.895 247.631 265.495 247.986C265.095 248.341 264.822 248.94 264.674 249.784C264.526 250.628 264.452 251.789 264.452 253.269L264.452 254.646ZM282.744 270.319C281.738 270.319 280.85 270.03 280.08 269.453C279.311 268.876 278.704 268.136 278.26 267.233C277.816 266.33 277.594 265.376 277.594 264.369C277.594 262.771 277.86 261.424 278.393 260.329C278.926 259.234 279.658 258.309 280.591 257.554C281.523 256.799 282.603 256.141 283.832 255.578C285.061 255.016 286.355 254.468 287.717 253.935L287.717 252.115C287.717 251.079 287.658 250.221 287.539 249.54C287.421 248.859 287.177 248.348 286.807 248.008C286.437 247.668 285.882 247.497 285.142 247.497C284.49 247.497 283.965 247.645 283.566 247.941C283.166 248.237 282.877 248.659 282.7 249.207C282.522 249.754 282.433 250.398 282.433 251.138L282.433 252.426L277.727 252.248C277.786 249.407 278.437 247.312 279.681 245.966C280.924 244.619 282.848 243.946 285.453 243.946C287.998 243.946 289.804 244.641 290.869 246.032C291.935 247.423 292.468 249.436 292.468 252.071L292.468 263.792C292.468 264.591 292.49 265.361 292.534 266.101C292.579 266.841 292.638 267.529 292.712 268.165C292.786 268.802 292.853 269.401 292.912 269.964L288.561 269.964C288.472 269.49 288.361 268.891 288.228 268.165C288.094 267.44 287.998 266.782 287.939 266.19C287.643 267.196 287.073 268.136 286.23 269.009C285.386 269.882 284.224 270.319 282.744 270.319ZM284.609 266.234C285.083 266.234 285.527 266.101 285.941 265.835C286.355 265.568 286.725 265.265 287.051 264.924C287.376 264.584 287.598 264.31 287.717 264.103L287.717 256.821C286.977 257.236 286.282 257.65 285.63 258.065C284.979 258.479 284.409 258.916 283.921 259.374C283.432 259.833 283.047 260.351 282.766 260.928C282.485 261.506 282.345 262.164 282.345 262.904C282.345 263.94 282.537 264.754 282.922 265.346C283.307 265.938 283.869 266.234 284.609 266.234ZM297.174 269.964L297.174 244.301L301.925 244.301L301.925 247.941C302.872 246.373 303.819 245.322 304.766 244.789C305.713 244.256 306.661 243.99 307.608 243.99C307.727 243.99 307.838 243.99 307.941 243.99C308.044 243.99 308.185 244.005 308.363 244.034L308.363 249.273C308.008 249.125 307.6 249 307.142 248.896C306.683 248.792 306.217 248.741 305.743 248.741C305.003 248.741 304.33 248.911 303.723 249.251C303.116 249.592 302.517 250.25 301.925 251.227L301.925 269.964L297.174 269.964ZM311.293 269.964L311.293 244.301L316.044 244.301L316.044 246.831C316.902 246.032 317.85 245.352 318.885 244.789C319.921 244.227 321.061 243.946 322.304 243.946C323.34 243.946 324.132 244.212 324.68 244.745C325.227 245.277 325.612 245.943 325.834 246.743C326.056 247.542 326.167 248.356 326.167 249.185L326.167 269.964L321.416 269.964L321.416 250.561C321.416 249.643 321.283 248.933 321.017 248.43C320.75 247.927 320.203 247.675 319.374 247.675C318.841 247.675 318.286 247.83 317.709 248.141C317.132 248.452 316.577 248.829 316.044 249.273L316.044 269.964L311.293 269.964ZM331.095 269.964L331.095 244.301L335.846 244.301L335.846 269.964L331.095 269.964ZM331.095 240.482L331.095 235.51L335.846 235.51L335.846 240.482L331.095 240.482ZM340.952 269.964L340.952 244.301L345.703 244.301L345.703 246.831C346.561 246.032 347.509 245.352 348.544 244.789C349.58 244.227 350.72 243.946 351.963 243.946C352.999 243.946 353.791 244.212 354.339 244.745C354.886 245.277 355.271 245.943 355.493 246.743C355.715 247.542 355.826 248.356 355.826 249.185L355.826 269.964L351.075 269.964L351.075 250.561C351.075 249.643 350.942 248.933 350.676 248.43C350.409 247.927 349.862 247.675 349.033 247.675C348.5 247.675 347.945 247.83 347.368 248.141C346.791 248.452 346.236 248.829 345.703 249.273L345.703 269.964L340.952 269.964ZM367.237 278C365.668 278 364.254 277.83 362.996 277.489C361.739 277.149 360.747 276.624 360.022 275.913C359.297 275.203 358.934 274.27 358.934 273.116C358.934 272.228 359.141 271.451 359.555 270.785C359.97 270.119 360.503 269.549 361.154 269.076C361.805 268.602 362.486 268.232 363.196 267.966L365.416 268.276C365.031 268.632 364.661 268.994 364.306 269.364C363.951 269.734 363.655 270.119 363.418 270.519C363.182 270.918 363.063 271.355 363.063 271.828C363.063 272.598 363.396 273.175 364.062 273.56C364.728 273.945 365.919 274.137 367.636 274.137C369.323 274.137 370.574 273.937 371.388 273.538C372.202 273.138 372.609 272.509 372.609 271.651C372.609 271.118 372.506 270.681 372.298 270.341C372.091 270.001 371.736 269.727 371.233 269.52C370.73 269.312 370.004 269.164 369.057 269.076L363.463 268.365C362.308 268.217 361.45 267.847 360.887 267.255C360.325 266.663 360.044 266.012 360.044 265.302C360.044 264.236 360.347 263.333 360.954 262.593C361.561 261.853 362.382 261.025 363.418 260.107L365.017 261.35C364.839 261.587 364.617 261.92 364.351 262.349C364.084 262.778 363.951 263.2 363.951 263.615C363.951 263.94 364.121 264.207 364.462 264.414C364.802 264.621 365.342 264.754 366.082 264.813L370.389 265.213C372.402 265.391 373.897 265.997 374.873 267.033C375.85 268.069 376.339 269.549 376.339 271.473C376.339 272.894 376.006 274.093 375.34 275.07C374.674 276.046 373.675 276.779 372.343 277.267C371.011 277.756 369.309 278 367.237 278ZM367.414 262.061C365.668 262.061 364.247 261.676 363.152 260.906C362.057 260.137 361.25 259.071 360.732 257.709C360.214 256.348 359.955 254.794 359.955 253.047C359.955 251.064 360.236 249.399 360.799 248.052C361.361 246.706 362.197 245.685 363.307 244.989C364.417 244.293 365.786 243.946 367.414 243.946C369.101 243.946 370.478 244.367 371.543 245.211C372.609 246.054 373.394 247.172 373.897 248.563C374.4 249.954 374.651 251.493 374.651 253.181C374.651 254.927 374.422 256.474 373.963 257.82C373.505 259.167 372.75 260.211 371.699 260.951C370.648 261.691 369.22 262.061 367.414 262.061ZM367.414 258.642C368.066 258.642 368.583 258.516 368.968 258.264C369.353 258.013 369.642 257.65 369.834 257.177C370.026 256.703 370.159 256.118 370.234 255.423C370.308 254.727 370.345 253.935 370.345 253.047C370.345 252.159 370.315 251.36 370.256 250.65C370.197 249.939 370.064 249.34 369.856 248.852C369.649 248.363 369.353 247.986 368.968 247.719C368.583 247.453 368.08 247.32 367.459 247.32C366.807 247.32 366.282 247.446 365.882 247.697C365.483 247.949 365.172 248.319 364.95 248.807C364.728 249.296 364.58 249.895 364.506 250.605C364.432 251.316 364.395 252.13 364.395 253.047C364.395 253.847 364.432 254.587 364.506 255.267C364.58 255.948 364.72 256.54 364.928 257.043C365.135 257.547 365.438 257.939 365.838 258.22C366.238 258.501 366.763 258.642 367.414 258.642ZM373.763 248.607L372.653 246.831C372.89 246.417 373.423 245.899 374.252 245.277C375.081 244.656 375.969 244.138 376.916 243.724L378.159 246.831C377.745 246.92 377.19 247.083 376.494 247.32C375.798 247.557 375.169 247.801 374.607 248.052C374.044 248.304 373.763 248.489 373.763 248.607Z"/>
</svg>
