<?xml version="1.0" encoding="utf-8" ?>
<svg xmlns="http://www.w3.org/2000/svg" xmlns:xlink="http://www.w3.org/1999/xlink" width="1000" height="1000">
	<path transform="scale(1.95312 1.95312)" d="M439.877 427.317L75.4595 427.441C57.3856 427.44 45.6094 427.973 32.7684 411.689C24.6234 401.36 22.5005 387.33 24.0436 374.514L49.8297 373.865C35.1625 361.526 33.5203 350.842 33.5371 333.642L33.534 130.777C33.5296 126.468 33.1878 122.311 33.753 118C36.3449 98.2353 53.2699 83.523 72.8245 81.6013L438.457 81.5766C457.418 82.3877 474.871 97.5803 478.025 116.371C478.997 122.159 479.023 128.172 479.031 134.024L478.893 341.654C478.101 356.678 472.293 364.628 461.747 374.138C463.304 374.552 465.731 374.273 467.386 374.274L488.279 374.691L488.351 385.641C487.83 404.518 475.284 423.758 455.884 426.903C450.67 427.749 445.134 427.468 439.877 427.317ZM79.488 122.06C75.2078 124.01 73.7468 127.005 73.6371 131.395L73.7971 337.492C74.1895 349.322 84.5053 348.894 92.577 348.699L204.877 348.696C211 348.699 214.885 347.368 218.19 353.625L220.765 359.42C223.923 359.778 226.932 359.542 230.088 359.535L290.547 359.425C295.191 349.344 295.845 348.719 306.1 348.692L421.187 348.772C435.827 348.992 438.164 345.241 438.224 330.695L438.229 137.268C438.223 129.643 438.837 122.308 428.656 122.09L89.0605 122.033C85.9508 122.033 82.5529 121.676 79.488 122.06Z"/>
	<path transform="scale(1.95312 1.95312)" d="M259.467 247.222C249.78 249.111 235.854 240.76 227.268 236.94L151.631 203C146.65 200.71 140.822 198.905 136.239 195.947C140.588 193.269 145.903 191.603 150.572 189.425L240.398 148.969C245.294 146.754 250.251 143.932 255.595 143.067C258.598 142.831 261.359 143.523 264.113 144.663L376.395 195.417C376.865 195.656 378.089 196.099 378.26 196.513C367.99 200.322 358.471 205.333 348.474 209.729L276.479 240.779C270.902 243.147 265.379 245.805 259.467 247.222Z"/>
	<path transform="scale(1.95312 1.95312)" d="M334.295 289.744L332.375 291.823C331.077 293.039 329.482 293.906 327.886 294.663L277.576 315.708C253.998 325.392 256.829 324.812 235.385 315.521L193.902 298.525C181.72 293.857 175.258 293.524 175.242 277.969L175.43 231.058L238.325 259.111C258.25 267.896 260.958 265.184 281.094 256.158L324.799 237.464C328.409 236.02 332.145 234.222 335.965 233.503C336.295 236.922 336.126 240.323 336.121 243.751L336.128 274.497C336.161 279.598 336.875 285.13 334.295 289.744Z"/>
	<path transform="scale(1.95312 1.95312)" d="M366.08 282.828C351.555 282.644 351.671 260.747 363.499 257.778C367.724 257.621 371.959 259.104 373.215 263.605L373.319 264C374.162 267.088 374.343 272.974 373.406 276.138L373.289 276.5C372.191 280.058 369.727 282.03 366.08 282.828Z"/>
</svg>
